<?xml version="1.0" encoding="UTF-8"?>
<svg version="1.1" xmlns="http://www.w3.org/2000/svg" width="1024" height="1024">
<path d="M0 0 C5.57441529 3.60297573 7.62149045 8.30085265 9.02799988 14.58422852 C9.18766336 15.28087144 9.34732684 15.97751436 9.5118286 16.69526768 C10.00329442 18.87354527 10.46672809 21.05605554 10.921875 23.2421875 C11.13379813 24.24438387 11.13379813 24.24438387 11.35000253 25.26682663 C12.36222826 30.09083293 13.29784447 34.92836889 14.22387695 39.76953125 C14.53202697 41.36272692 14.84056107 42.95584833 15.14944172 44.54890251 C15.98337174 48.85576581 16.81190675 53.16365075 17.63942575 57.47174978 C18.52691482 62.08693008 19.41946939 66.70113099 20.31137085 71.31546021 C22.03147044 80.21886583 23.74689239 89.12316617 25.46055198 98.02781332 C26.83968875 105.19364676 28.22066548 112.35912339 29.60293579 119.52435303 C29.79894451 120.54040245 29.99495324 121.55645188 30.19690162 122.60329068 C30.59340668 124.65861059 30.98991547 126.71392978 31.386428 128.76924825 C35.13360681 148.19397383 38.87477506 167.61985297 42.61275578 187.04635048 C42.98959797 189.00481821 43.36644141 190.96328569 43.74328613 192.92175293 C44.01894194 194.35434261 44.01894194 194.35434261 44.30016655 195.8158735 C45.98406533 204.56653836 47.66970019 213.31686836 49.35566509 222.06713533 C52.53180659 238.55162323 55.70328192 255.03700241 58.87057114 271.52319336 C59.60958607 275.36828567 60.34944936 279.21321392 61.08950806 283.05810547 C62.22931559 288.98095706 63.36633355 294.90433696 64.50096512 300.82818222 C64.90891706 302.95587985 65.31779381 305.08340041 65.72767258 307.21072769 C66.27635639 310.05943062 66.82164151 312.90876234 67.3659668 315.75830078 C67.52612935 316.58566742 67.6862919 317.41303406 67.85130787 318.26547241 C68.42884101 321.30478116 68.921875 324.14064977 68.921875 327.2421875 C69.54933215 327.284646 70.1767893 327.32710449 70.82326031 327.37084961 C78.75257088 327.99079659 86.47541943 329.32324613 94.2824707 330.8046875 C95.70466459 331.07062062 97.12694321 331.33610092 98.54929829 331.60117054 C102.41912659 332.32366139 106.28774736 333.05243912 110.15619516 333.78228021 C114.31234845 334.56519058 118.46963867 335.34201894 122.62680054 336.11955261 C130.6990674 337.63028893 138.770343 339.14625489 146.84126067 340.66418082 C157.12308376 342.59777447 167.40587167 344.52621667 177.6887207 346.4543457 C180.52790746 346.98673302 183.36709417 347.51912062 186.20628053 348.05151004 C188.10656632 348.40783729 190.00685423 348.76415325 191.90714425 349.12045795 C197.65182526 350.19763959 203.39638076 351.27548791 209.14085382 352.35377795 C233.26826111 356.88236544 257.40147499 361.3781103 281.54231453 365.83452988 C286.28848559 366.71079902 291.0343538 367.58869969 295.78013611 368.46707153 C296.92786429 368.67947882 296.92786429 368.67947882 298.0987789 368.89617717 C301.13627229 369.4583316 304.17376099 370.0205113 307.21122253 370.58283782 C315.94882393 372.20033818 324.68738387 373.81241833 333.42761207 375.41566581 C339.49499901 376.52920621 345.56054617 377.65248459 351.62547684 378.77932167 C354.08160378 379.23396447 356.53834152 379.68532251 358.99573898 380.1330471 C362.33437167 380.74168185 365.67063816 381.36198072 369.0065918 381.98510742 C369.9596285 382.15586288 370.9126652 382.32661835 371.89458179 382.50254822 C389.55335411 385.8486549 389.55335411 385.8486549 394.609375 392.3671875 C397.41224195 397.31485698 397.95390921 401.67817697 396.921875 407.2421875 C395.40915283 412.3022874 392.87177001 416.26920722 388.32911777 419.16817188 C385.19389906 420.5669813 381.9824224 421.38146015 378.6559906 422.17643738 C377.95062839 422.34850808 377.24526618 422.52057879 376.51852936 422.69786376 C369.02601873 424.50067574 361.48357357 426.04190785 353.92602539 427.54418945 C352.39055687 427.85238704 350.85515675 428.16092554 349.3198185 428.46977139 C346.02939861 429.13091458 342.73851759 429.78969196 339.44724083 430.44655609 C334.14699148 431.50437871 328.84783406 432.56760534 323.54878235 433.63140869 C315.96133343 435.15406114 308.37339572 436.67425491 300.78509521 438.19265747 C283.01721373 441.74810704 265.25148017 445.31426578 247.48577118 448.88055229 C243.529268 449.6747787 239.57272807 450.46882171 235.61615753 451.26271248 C210.30111355 456.34245688 184.99095995 461.44519663 159.69140625 466.6015625 C159.0167231 466.73905025 158.34203995 466.876538 157.64691186 467.01819205 C144.67186366 469.66239659 131.69802721 472.31250484 118.72544765 474.96879387 C114.38390373 475.85744886 110.04205377 476.74460244 105.70015526 477.63152313 C102.82199119 478.22018457 99.94434206 478.81131222 97.06672668 479.40264893 C88.37559891 481.1820995 79.69273336 482.89230722 70.921875 484.2421875 C70.81540649 485.41700684 70.70893799 486.59182617 70.59924316 487.80224609 C69.82800534 494.69755671 68.41952682 501.47845201 67.08398438 508.28125 C66.78863385 509.79980011 66.49360412 511.31841265 66.19886684 512.83708191 C65.39447068 516.97704158 64.58562162 521.11612035 63.77604556 525.25506973 C62.90995825 529.68734033 62.0481826 534.12044923 61.18592834 538.5534668 C59.51443405 547.14353396 57.83928063 555.73288328 56.16273183 564.32196522 C53.05891274 580.22370551 49.96164383 596.12672335 46.86372751 612.02961445 C45.88476789 617.05496006 44.90562109 622.08026906 43.92606926 627.10549927 C38.95602518 652.60301854 34.01031299 678.10500798 29.10828018 703.61569214 C28.22134583 708.2310433 27.33311291 712.84614386 26.44454956 717.46118164 C26.15778344 718.95075951 25.87101928 720.44033775 25.58425713 721.92991638 C25.16332702 724.11640963 24.7423859 726.30290076 24.3213923 728.48938179 C22.70941543 736.86206591 21.10223067 745.23563823 19.50263983 753.61069775 C18.39859506 759.38881189 17.28655755 765.1653689 16.1715374 770.94137573 C15.72282564 773.27328448 15.27689154 775.60572977 14.83400154 777.93875122 C14.2358647 781.08821888 13.62806301 784.23567128 13.01782227 787.3828125 C12.84817711 788.28936081 12.67853195 789.19590912 12.50374603 790.12992859 C11.00202304 797.77867021 9.19272048 804.11149574 2.921875 809.2421875 C-2.68028601 812.42773004 -7.77490264 813.10171782 -14.078125 812.2421875 C-19.60411894 810.71146792 -22.90695995 807.97177668 -25.85971069 802.99237061 C-28.65274088 796.68799253 -29.59862559 789.70839683 -30.87890625 782.96875 C-31.22998716 781.18719773 -31.58253986 779.40593497 -31.93643188 777.62493896 C-32.90267243 772.74082036 -33.84851499 767.8529412 -34.79117966 762.96422577 C-35.80962226 757.70243544 -36.84734119 752.44444761 -37.88305664 747.18603516 C-39.68015995 738.04973877 -41.46604493 728.911308 -43.24511719 719.77148438 C-46.12880951 704.96058223 -49.04263543 690.15567829 -51.9609375 675.3515625 C-52.96650839 670.24904677 -53.97193279 665.14650218 -54.97729492 660.04394531 C-55.22762954 658.77349239 -55.47796415 657.50303947 -55.73588467 656.19408798 C-57.50956521 647.19084175 -59.27981629 638.18692569 -61.0480957 629.18261719 C-61.42309062 627.27311216 -61.42309062 627.27311216 -61.8056612 625.32503128 C-62.31012252 622.75622565 -62.81458349 620.18741996 -63.31904411 617.6186142 C-69.3758121 586.77893554 -75.46877355 555.94648866 -81.578125 525.1171875 C-81.79800457 524.00754387 -82.01788414 522.89790024 -82.24442673 521.75463104 C-84.85435478 508.58355772 -87.46544076 495.41271436 -90.078125 482.2421875 C-110.24866294 478.12254338 -130.47343186 474.31187211 -150.70909882 470.52881622 C-154.62421281 469.79652502 -158.53904936 469.062756 -162.45390129 468.32906532 C-190.68724999 463.03848265 -218.92650444 457.77975321 -247.1669414 452.52716732 C-254.1521302 451.22791757 -261.13722063 449.92813999 -268.12225342 448.62805176 C-269.11637623 448.44302503 -270.11049904 448.25799829 -271.13474679 448.06736469 C-275.16709375 447.31685761 -279.19943957 446.56634439 -283.23177385 445.8157692 C-295.3324587 443.56339599 -307.43353974 441.31317687 -319.5352639 439.06639421 C-327.26784074 437.63062834 -334.99999399 436.19259579 -342.73184502 434.75292647 C-347.26059194 433.90976883 -351.78953106 433.06768 -356.31899643 432.22838974 C-360.53413162 431.44732953 -364.74869912 430.66327384 -368.96287251 429.87704134 C-370.48492082 429.593601 -372.00716289 429.31119841 -373.52963161 429.03002501 C-381.6448474 427.53064095 -389.74118339 425.94550193 -397.81362915 424.22982788 C-398.56559299 424.07656748 -399.31755683 423.92330709 -400.09230745 423.76540244 C-407.6154781 422.12861384 -411.50959347 419.41587876 -416.078125 413.2421875 C-418.58858152 408.81900221 -418.73965541 404.20366557 -418.078125 399.2421875 C-416.5101042 394.18175675 -414.46692328 391.14191525 -409.96541786 388.22111893 C-406.29451017 386.31703346 -402.30765205 385.62708417 -398.28393555 384.79638672 C-397.31974292 384.58777449 -396.35555029 384.37916225 -395.3621397 384.16422844 C-383.87432211 381.71051199 -372.33058327 379.53731331 -360.78515625 377.375 C-358.3011918 376.90649765 -355.81730241 376.43759724 -353.33348083 375.96833801 C-347.98865371 374.95928454 -342.6433964 373.95256168 -337.29772949 372.94796753 C-328.75659053 371.34275396 -320.21656086 369.73168849 -311.67675781 368.11938477 C-310.57964316 367.91226134 -310.57964316 367.91226134 -309.46036458 367.7009536 C-306.45349308 367.1332854 -303.44662362 366.5656064 -300.43976557 365.99786693 C-295.78476346 365.11895611 -291.12968047 364.24047512 -286.47453988 363.36229807 C-248.51855194 356.2017387 -210.57406798 348.98070974 -172.62958592 341.75947332 C-163.42962293 340.00863801 -154.22955324 338.25836367 -145.02947628 336.50812733 C-127.04556374 333.08682403 -109.06178841 329.6648001 -91.078125 326.2421875 C-87.29156288 308.29154349 -83.6719988 290.30907716 -80.09962606 272.31486917 C-79.48702996 269.23003317 -78.87366015 266.14535119 -78.26030087 263.06066686 C-76.60873899 254.7546477 -74.95876905 246.44831306 -73.30950952 238.14183646 C-72.10444073 232.07273842 -70.89864389 226.00378538 -69.69247437 219.93490601 C-62.5160533 183.82508508 -55.35339469 147.71265111 -48.26296496 111.5858345 C-47.83862028 109.42382487 -47.41416883 107.26183622 -46.98968697 105.09985352 C-44.36234718 91.71773825 -41.73756357 78.33513521 -39.12324524 64.95046902 C-38.18013611 60.12479526 -37.23456924 55.29960515 -36.28849411 50.4745121 C-35.85851472 48.27826304 -35.42967933 46.08178961 -35.0021553 43.88506126 C-33.72647649 37.3306329 -32.42498443 30.78237409 -31.078125 24.2421875 C-30.90707119 23.40354031 -30.73601738 22.56489311 -30.55978012 21.70083237 C-30.0709762 19.33853838 -29.56153932 16.98181097 -29.04370117 14.62573242 C-28.90389234 13.94422025 -28.7640835 13.26270807 -28.62003803 12.56054401 C-27.46644882 7.49666033 -25.43287746 4.00194898 -21.25390625 0.87890625 C-13.95981662 -2.83695073 -7.64877981 -2.64765455 0 0 Z M-11.078125 106.2421875 C-11.25867337 107.15523683 -11.43922174 108.06828615 -11.62524128 109.00900364 C-16.07639682 131.51875168 -20.52825426 154.02836083 -24.98079395 176.53783512 C-27.13423932 187.42449386 -29.28746759 198.31119545 -31.44018555 209.19799805 C-32.07075799 212.38680477 -32.70133696 215.5756102 -33.33191895 218.76441503 C-33.74952725 220.87630148 -34.16711124 222.98819274 -34.58467078 225.10008883 C-36.83661781 236.48964692 -39.09060975 247.87879234 -41.35061646 259.26675415 C-42.13958491 263.24308738 -42.92845136 267.21944084 -43.71728516 271.19580078 C-43.90779646 272.15590789 -44.09830777 273.116015 -44.29459214 274.10521626 C-46.61953019 285.82552975 -48.92136002 297.54991514 -51.18838799 309.28156435 C-52.06793441 313.82473531 -52.95655612 318.36613951 -53.84415245 322.90774345 C-54.29261531 325.21706633 -54.73628758 327.52732573 -55.17469215 329.83857918 C-55.7565067 332.90582284 -56.35416312 335.9695549 -56.95581055 339.03295898 C-57.11477751 339.89686941 -57.27374447 340.76077984 -57.43752861 341.65086937 C-58.4364037 346.63187881 -59.57257657 350.39264939 -63.078125 354.2421875 C-69.61856464 358.5836842 -76.555228 360.3391275 -84.18945312 361.69555664 C-85.26139199 361.89863182 -86.33333086 362.101707 -87.43775272 362.31093597 C-90.99245377 362.98068423 -94.55071843 363.62897059 -98.109375 364.27734375 C-100.65576279 364.75280674 -103.20189477 365.22964152 -105.74778748 365.70774841 C-111.18743159 366.72723546 -116.62896759 367.73602266 -122.07199097 368.73730469 C-129.89497816 370.17649632 -137.71476716 371.63246269 -145.53373659 373.09330773 C-155.00158954 374.86213349 -164.46998401 376.62800937 -173.94007874 378.38479614 C-174.66847306 378.51992257 -175.39686739 378.65504899 -176.14733428 378.79427016 C-177.23893944 378.99677321 -177.23893944 378.99677321 -178.35259724 379.20336723 C-196.26593363 382.52652709 -214.17220375 385.88593338 -232.07421875 389.26953125 C-233.94423239 389.62294932 -233.94423239 389.62294932 -235.85202408 389.98350716 C-241.9082847 391.12828076 -247.96442717 392.27367779 -254.02050781 393.41940308 C-264.129582 395.3315616 -274.23975646 397.23788605 -284.34993172 399.14421272 C-288.18009928 399.86643003 -292.01022805 400.58885291 -295.84035492 401.31128597 C-299.25293725 401.95496061 -302.66553091 402.59857522 -306.078125 403.2421875 C-306.078125 403.9021875 -306.078125 404.5621875 -306.078125 405.2421875 C-305.09179235 405.42642304 -304.10545969 405.61065859 -303.08923817 405.80047703 C-278.90846297 410.31718687 -254.72778102 414.83439561 -230.54719257 419.35210514 C-218.85287484 421.53696727 -207.15852863 423.72167675 -195.46411133 425.90600586 C-185.25198917 427.81346649 -175.03992457 429.72123492 -164.82792443 431.6293487 C-159.43829975 432.63639042 -154.04864946 433.64329458 -148.65892982 434.64982796 C-147.63021497 434.84195828 -146.60150012 435.03408861 -145.54161209 435.23204106 C-143.49613308 435.61405567 -141.45064344 435.99601333 -139.40514284 436.37791234 C-134.49698276 437.29456406 -129.5891783 438.213041 -124.68214893 439.13572788 C-116.42040563 440.68841387 -108.15818267 442.23472438 -99.88451773 443.72280484 C-96.44352539 444.34276196 -93.00417738 444.97155235 -89.56499135 445.60144317 C-87.97884787 445.88942506 -86.39191608 446.17310578 -84.80415213 446.45201504 C-66.21559978 449.71915586 -66.21559978 449.71915586 -60.73046875 455.87834167 C-58.61199103 460.19114429 -57.60430378 464.37481952 -56.640625 469.0637207 C-56.43236084 470.0279083 -56.22409668 470.99209589 -56.00952148 471.98550129 C-55.34967244 475.06793835 -54.71107709 478.15412288 -54.078125 481.2421875 C-53.87574219 482.22106808 -53.67335938 483.19994865 -53.46484375 484.20849228 C-51.9633184 491.49718127 -50.51746949 498.79647829 -49.078125 506.09765625 C-48.60433205 508.48913378 -48.130285 510.88056098 -47.65600586 513.27194214 C-46.51900981 519.00874681 -45.38491853 524.74611974 -44.25230122 530.4837904 C-43.33501914 535.13014572 -42.41627186 539.77620931 -41.49658203 544.42208862 C-41.36502024 545.08669647 -41.23345844 545.75130431 -41.09790993 546.43605179 C-40.96592894 547.10277705 -40.83394794 547.76950232 -40.69796753 548.45643139 C-30.09123086 602.03852675 -19.57062369 655.63761741 -9.078125 709.2421875 C-8.748125 709.2421875 -8.418125 709.2421875 -8.078125 709.2421875 C-7.92095694 708.4324221 -7.76378887 707.62265671 -7.60185814 706.78835297 C-3.69987804 686.68451519 0.20224228 666.58070464 4.10450172 646.47692108 C5.80834729 637.6989808 7.51218139 628.92103829 9.21588874 620.14307117 C9.58278061 618.25275454 9.94967898 616.36243916 10.31658387 614.47212505 C11.23026915 609.76475005 12.1438644 605.0573576 13.05727768 600.34992981 C14.87613174 590.97687637 16.69683762 581.60418849 18.52105713 572.23217773 C19.24374178 568.51810752 19.96619486 564.80399234 20.68847656 561.08984375 C20.86563344 560.17895681 21.04279031 559.26806988 21.22531557 558.32958031 C23.67780934 545.71387791 26.09851484 533.09244638 28.49624085 520.46622753 C29.45669153 515.41541415 30.42322065 510.36576029 31.39006984 505.31616831 C32.28864656 500.61910496 33.17697113 495.92025989 34.05729675 491.21974373 C34.5964797 488.35428547 35.14547586 485.4907726 35.69722605 482.62771034 C36.06553322 480.70050582 36.42185252 478.77102211 36.77769089 476.84147644 C38.04736517 470.30892542 39.62173415 465.02688535 42.921875 459.2421875 C43.18891424 458.55303505 43.45595348 457.8638826 43.73108482 457.15384674 C45.75600267 453.90310367 48.91377486 453.51750402 52.45289898 452.55095387 C53.34618814 452.34479293 54.23947729 452.13863199 55.15983582 451.92622375 C56.17876828 451.6901324 57.19770075 451.45404104 58.24750996 451.2107954 C59.34298743 450.96245606 60.43846491 450.71411673 61.56713867 450.45825195 C62.71997188 450.19491467 63.87280508 449.9315774 65.06057262 449.6602602 C77.53316857 446.83710276 90.05873716 444.29376849 102.59765625 441.78515625 C105.11140504 441.27943033 107.62509047 440.77338935 110.13871765 440.26705933 C115.43831534 439.2002798 120.73835136 438.1357237 126.03881836 437.07327271 C133.62075096 435.55347945 141.20163219 434.02849032 148.78233552 432.50257909 C173.75419694 427.47655813 198.72992591 422.47027763 223.71513939 417.51099968 C226.78491194 416.90153109 229.85455403 416.29141004 232.92414856 415.68104553 C234.87936243 415.29231989 236.83457785 414.90360209 238.78979492 414.51489258 C240.19813142 414.23487695 240.19813142 414.23487695 241.63491917 413.94920444 C247.10038587 412.86318466 252.56695837 411.78295681 258.03445148 410.70718765 C261.35498329 410.05277667 264.67460284 409.39382873 267.99399757 408.73367691 C269.50604397 408.4340531 271.01849419 408.13645861 272.53137779 407.84109116 C274.56627023 407.44365865 276.59965203 407.03924161 278.6328125 406.63305664 C279.75993652 406.41089981 280.88706055 406.18874298 282.04833984 405.95985413 C284.63210312 405.31455815 286.5838532 404.46892163 288.921875 403.2421875 C288.08927406 403.08832958 287.25667313 402.93447166 286.39884186 402.77595139 C265.78860354 398.96728571 245.17854149 395.15766736 224.56865692 391.34708786 C214.60037694 389.50406578 204.63204349 387.66133392 194.66357422 385.81933594 C190.79003414 385.10354226 186.91649917 384.38772094 183.04296875 383.671875 C182.08703323 383.49521522 181.13109772 383.31855543 180.14619446 383.13654232 C164.97453447 380.33258139 149.80397797 377.52269778 134.63418579 374.70864964 C124.21800904 372.77645421 113.8008458 370.84988723 103.38111067 368.93696761 C97.25989095 367.81301852 91.13964697 366.68387408 85.02019548 365.55033708 C81.55371803 364.90848674 78.08678567 364.26941791 74.61845398 363.63765717 C70.88548424 362.9563506 67.15449504 362.26507704 63.42382812 361.57128906 C62.34767746 361.37752434 61.27152679 361.18375961 60.1627655 360.98412323 C52.01066501 359.45093305 45.46321432 357.86100947 39.921875 351.2421875 C37.70177731 347.25532545 36.38846707 343.66706172 35.52986145 339.19477844 C35.29646687 338.00244535 35.06307228 336.81011227 34.82260513 335.58164787 C34.57534169 334.27101508 34.32824533 332.96035075 34.08129883 331.6496582 C33.81172916 330.25476152 33.54137624 328.86001601 33.27030563 327.46541023 C32.53405921 323.66567005 31.8088129 319.86390317 31.08546185 316.06169009 C30.31424024 312.01817466 29.5328837 307.9766179 28.75267029 303.93482971 C27.42430954 297.04623253 26.10226508 290.15644847 24.7845459 283.26580811 C22.91122283 273.47028966 21.02667783 263.67695644 19.1391933 253.88415813 C13.40993131 224.15630039 7.71199435 194.42248315 2.05013084 164.68171501 C0.92615799 158.78163792 -0.20135282 152.88223561 -1.32900906 146.98286152 C-2.3189015 141.7999566 -3.30006364 136.61549837 -4.2741003 131.42959118 C-4.85622411 128.33857195 -5.44507661 125.24886477 -6.03590202 122.15949821 C-6.29925877 120.77409884 -6.55959555 119.38812124 -6.81659126 118.00152779 C-7.15602424 116.17126015 -7.50681872 114.34310993 -7.85839844 112.51513672 C-8.14236481 111.00800613 -8.14236481 111.00800613 -8.43206787 109.47042847 C-8.75186615 108.36744919 -8.75186615 108.36744919 -9.078125 107.2421875 C-9.738125 106.9121875 -10.398125 106.5821875 -11.078125 106.2421875 Z " fill="#1A1A1A" transform="translate(522.078125,106.7578125)"/>
<path d="M0 0 C4.62502919 3.78411479 7.49820278 7.33241316 8.75 13.25 C8.72415613 21.90769502 5.14361364 27.47738024 0.625 34.6875 C-0.09898461 35.86960787 -0.82103915 37.05289977 -1.54125977 38.23730469 C-2.65597199 40.07040345 -3.77160132 41.90283696 -4.89302063 43.73184204 C-8.78381953 50.08340249 -12.48970584 56.53442989 -16.1875 63 C-20.16796225 69.93400747 -24.16841503 76.84984961 -28.3125 83.6875 C-31.80234962 89.45103952 -35.09423518 95.29736126 -38.25 101.25 C-23.83990494 92.66820754 -9.54138171 83.91224146 4.73388672 75.10839844 C14.9173433 68.83379333 14.9173433 68.83379333 19.60449219 66.00439453 C23.04016111 63.92911008 26.42802967 61.81418573 29.76171875 59.578125 C36.33169631 55.24492765 41.90576197 51.90582812 50.08984375 52.6328125 C55.25838005 53.83197364 58.91456155 55.80448684 62.125 60.08203125 C64.73059126 64.66895753 65.72285596 69.04116702 64.75 74.25 C61.55004197 84.84986098 50.96899309 89.48780993 42.0625 94.8125 C40.00218847 96.05530071 37.94230123 97.29880502 35.8828125 98.54296875 C34.85188477 99.16478027 33.82095703 99.7865918 32.75878906 100.42724609 C28.29911609 103.12895969 23.86680971 105.87388128 19.4375 108.625 C2.36718568 119.21408937 -14.7409244 129.74046022 -31.91088867 140.16723633 C-38.27454543 144.03575254 -44.61143528 147.9453767 -50.9375 151.875 C-54.37299541 154.00325505 -57.81088629 156.12759755 -61.25 158.25 C-62.62406006 159.09933105 -62.62406006 159.09933105 -64.02587891 159.96582031 C-66.76221031 161.65228035 -69.50504247 163.32762551 -72.25 165 C-73.08104248 165.51385254 -73.91208496 166.02770508 -74.76831055 166.55712891 C-75.54601807 167.02812012 -76.32372559 167.49911133 -77.125 167.984375 C-77.80304688 168.39913086 -78.48109375 168.81388672 -79.1796875 169.24121094 C-84.60696437 171.88572839 -91.72621336 172.39150835 -97.46875 170.53125 C-101.79383179 168.53009275 -104.63217994 166.33379929 -107.25 162.25 C-109.26766305 156.19701086 -109.36004185 150.03517256 -106.98486328 144.07568359 C-105.20944863 140.77731917 -103.30760158 137.6077046 -101.3125 134.4375 C-100.60936183 133.27793343 -99.90869984 132.11686194 -99.21044922 130.9543457 C-97.2499115 127.70313777 -95.25062044 124.4767035 -93.25 121.25 C-91.78058896 118.81892113 -90.32847457 116.37818601 -88.875 113.9375 C-88.18243215 112.79288373 -87.48971448 111.64835811 -86.796875 110.50390625 C-83.18036375 104.49607538 -79.66380535 98.42878578 -76.125 92.375 C-70.05442809 81.99201725 -63.9119074 71.65603029 -57.70458984 61.35400391 C-53.4934202 54.35325544 -49.3545974 47.31367205 -45.25 40.25 C-44.10174071 38.2850521 -42.9533023 36.32020886 -41.8046875 34.35546875 C-39.62164518 30.61842733 -37.45993135 26.87040195 -35.31842041 23.10940552 C-33.68511722 20.2520488 -32.0274759 17.40879866 -30.375 14.5625 C-29.78074219 13.50482422 -29.18648438 12.44714844 -28.57421875 11.35742188 C-24.63329849 4.6297707 -20.85740292 0.01371824 -13.25439453 -2.37768555 C-8.32979421 -3.29242556 -4.29242222 -2.31130427 0 0 Z " fill="#1A1A1A" transform="translate(363.25,595.75)"/>
<path d="M0 0 C0.92200195 0.54164795 1.84400391 1.0832959 2.79394531 1.64135742 C5.58127476 3.28599686 8.35526709 4.95092448 11.125 6.625 C11.89166992 7.0876123 12.65833984 7.55022461 13.44824219 8.02685547 C17.08241045 10.22682811 20.70396217 12.44666353 24.3203125 14.67578125 C29.77296793 18.03205158 35.25929381 21.33144404 40.75 24.625 C42.3131897 25.56267212 42.3131897 25.56267212 43.90795898 26.51928711 C49.88203897 30.09748653 55.86465437 33.6608509 61.85546875 37.2109375 C62.51508606 37.60182053 63.17470337 37.99270355 63.85430908 38.39543152 C65.20261275 39.19436239 66.55092007 39.99328711 67.89923096 40.79220581 C68.57185974 41.19077789 69.24448853 41.58934998 69.9375 42 C70.61109558 42.39913605 71.28469116 42.79827209 71.97869873 43.20950317 C82.80951366 49.62995174 93.60213651 56.11054797 104.34155273 62.68286133 C109.56182682 65.87342809 114.79210811 69.03000723 120.1015625 72.0703125 C121.01969727 72.60148682 121.93783203 73.13266113 122.88378906 73.67993164 C124.55209438 74.64127779 126.22789289 75.58981474 127.91308594 76.52124023 C133.75145718 79.90400121 138.86514421 84.28259499 140.80810547 90.97949219 C141.74763731 96.29262332 140.98229804 101.03015585 138.125 105.625 C133.81255655 110.3035943 129.85862489 112.71900346 123.4375 113.25 C115.69971378 113.09965441 110.06233752 109.19436205 103.70361328 105.22998047 C100.81547329 103.43234438 97.90750437 101.66984905 94.99609375 99.91015625 C91.51758258 97.80594956 88.04025629 95.70009017 84.5703125 93.58178711 C71.73440603 85.74752779 58.79862053 78.08281073 45.85536194 70.4276123 C42.60499709 68.50478847 39.36117569 66.57161157 36.125 64.625 C44.63103093 79.23986382 53.19024884 93.81575619 62 108.25 C66.94469673 116.35580845 71.85683065 124.47627441 76.625 132.6875 C77.30151611 133.84789795 77.30151611 133.84789795 77.99169922 135.03173828 C81.53962442 141.18589903 82.7753777 145.60332967 82.125 152.625 C80.06428287 158.57818283 76.20028313 161.92550143 70.75 164.9375 C63.99884701 166.70565912 59.39276685 165.92817713 53.46679688 162.47924805 C48.76402479 158.75556644 46.16079536 153.45925516 43.25 148.3125 C42.52369382 147.06836898 41.79512176 145.82555838 41.06445312 144.58398438 C39.52282758 141.95742329 37.99364381 139.32418497 36.47363281 136.68505859 C34.14734153 132.65227913 31.77939941 128.6452245 29.3984375 124.64453125 C29.00596832 123.98507004 28.61349915 123.32560883 28.20913696 122.64616394 C27.41387292 121.31030318 26.61847273 119.97452345 25.82293701 118.63882446 C24.61719366 116.61187694 23.41476575 114.58299911 22.21337891 112.5534668 C17.07469485 103.87510027 11.875245 95.23627019 6.625 86.625 C-0.37019724 75.14823447 -7.25780856 63.61035304 -14.10327148 52.04370117 C-17.60545812 46.12707256 -21.11248966 40.21453413 -24.671875 34.33203125 C-25.23156982 33.40648437 -25.79126465 32.4809375 -26.36791992 31.52734375 C-27.3752552 29.86521704 -28.3855773 28.20489474 -29.3996582 26.546875 C-33.06164927 20.50279894 -35.50299582 15.90975146 -34.875 8.625 C-32.74696033 2.12887891 -29.5157177 -1.61452153 -23.875 -5.375 C-14.41697855 -7.79449386 -7.94734602 -4.79134688 0 0 Z " fill="#1A1A1A" transform="translate(289.875,260.375)"/>
<path d="M0 0 C6.79292087 4.57783798 10.67455064 12.72894324 14.6875 19.6875 C19.39613522 27.75718818 24.1843446 35.77285077 29.05404663 43.74621582 C35.26511467 53.91740832 41.372765 64.14169796 47.375 74.4375 C52.97121421 84.03627891 58.65186039 93.57666095 64.4375 103.0625 C69.93535414 112.08030226 75.40396954 121.11415118 80.80050659 130.1930542 C81.51100541 131.38788037 82.22251643 132.58210528 82.93508911 133.7756958 C83.91801539 135.42292233 84.89661314 137.07272944 85.875 138.72265625 C86.431875 139.65988525 86.98875 140.59711426 87.5625 141.56274414 C90.47300521 146.82883122 90.48184842 152.05444169 89.875 157.9375 C87.21006889 163.36606338 83.51860848 166.70381604 78.0625 169.25 C71.72710251 170.61645828 67.49975074 169.46713718 61.984375 166.38671875 C61.01540283 165.8457959 60.04643066 165.30487305 59.0480957 164.74755859 C53.27829774 161.4562389 47.53815049 158.1172934 41.8125 154.75 C41.1730545 154.37456055 40.53360901 153.99912109 39.87478638 153.61230469 C30.30867821 147.99423945 20.804605 142.28460169 11.35986328 136.46484375 C6.16654873 133.27272586 0.95895564 130.10401013 -4.25 126.9375 C-4.83886993 126.57946289 -5.42773987 126.22142578 -6.03445435 125.85253906 C-15.02507211 120.38985439 -24.05380775 114.99393777 -33.10577393 109.63360596 C-37.78191713 106.86365226 -42.45433489 104.08741772 -47.12695312 101.31152344 C-49.81698226 99.71348469 -52.5085914 98.11814977 -55.20117188 96.52441406 C-58.48114302 94.58172572 -61.75484381 92.62883977 -65.02441406 90.66870117 C-66.24372513 89.93984913 -67.46504043 89.21433802 -68.68847656 88.49243164 C-70.37578377 87.49613254 -72.05526739 86.48661951 -73.734375 85.4765625 C-74.68280273 84.91146973 -75.63123047 84.34637695 -76.60839844 83.76416016 C-80.45893468 80.96927151 -83.40265226 77.39636978 -85.125 72.9375 C-85.87415483 67.04155418 -85.59851482 61.91620457 -82.125 56.9375 C-77.67939476 52.49189476 -73.55446142 50.027194 -67.14770508 49.89746094 C-60.39094931 50.37183682 -55.77847357 52.99417943 -50.125 56.5625 C-49.17641113 57.14225586 -48.22782227 57.72201172 -47.25048828 58.31933594 C-45.23004232 59.55421774 -43.21335201 60.79526244 -41.20019531 62.04199219 C-37.18124852 64.51921535 -33.12785891 66.9364206 -29.07299805 69.35424805 C-21.17805864 74.06411537 -13.31053803 78.81910056 -5.45703125 83.59765625 C-4.81765625 83.98656036 -4.17828125 84.37546448 -3.51953125 84.77615356 C-0.39872338 86.67481338 2.72083288 88.57548119 5.83837891 90.47949219 C6.96034668 91.16301758 8.08231445 91.84654297 9.23828125 92.55078125 C10.23126221 93.15704346 11.22424316 93.76330566 12.24731445 94.38793945 C14.42399183 95.67153801 16.59698805 96.84760511 18.875 97.9375 C10.71506413 83.91728864 2.52282395 69.92127316 -5.92706299 56.07336426 C-6.99785342 54.31602289 -8.06476623 52.55638832 -9.13037109 50.79589844 C-12.25801933 45.63125594 -15.40410319 40.48264617 -18.63671875 35.3828125 C-27.68774432 20.87243817 -27.68774432 20.87243817 -26.7578125 12.32421875 C-25.24391073 6.61437936 -21.94919271 3.15362847 -17.125 -0.0625 C-11.08237952 -2.88238956 -6.11640537 -2.07957783 0 0 Z " fill="#1A1A1A" transform="translate(679.125,596.0625)"/>
<path d="M0 0 C5.24094777 2.73984471 8.03007342 6.81678275 9.86328125 12.31640625 C10.94375321 19.86427464 8.63705388 24.90543252 4.86328125 31.31640625 C4.24324219 32.37085938 3.62320313 33.4253125 2.984375 34.51171875 C1.50512122 37.00097239 0.00809202 39.47886817 -1.49609375 41.953125 C-4.50187364 46.90348386 -7.444598 51.89053088 -10.38671875 56.87890625 C-11.51171875 58.78515625 -12.63671875 60.69140625 -13.76171875 62.59765625 C-14.32375 63.55027344 -14.88578125 64.50289063 -15.46484375 65.484375 C-17.06201511 68.18986387 -18.661374 70.89404353 -20.26171875 73.59765625 C-24.92587157 81.47912264 -29.58376212 89.36399053 -34.20703125 97.26953125 C-41.64836136 109.99240538 -49.11090852 122.69873035 -56.73583984 135.31298828 C-59.7843148 140.36220356 -62.78952282 145.4290613 -65.71484375 150.55078125 C-66.29137695 151.55246338 -66.86791016 152.55414551 -67.46191406 153.58618164 C-68.5400655 155.46445976 -69.60798277 157.34866886 -70.66308594 159.23999023 C-74.0880175 165.1825529 -77.87828557 170.18718966 -84.13671875 173.31640625 C-89.69203123 173.82370275 -94.55502111 174.07901047 -99.63671875 171.62890625 C-104.1239935 167.4781771 -107.68071231 163.58935544 -108.34765625 157.33984375 C-108.25608542 148.21328445 -102.71979095 140.83677755 -98.13671875 133.31640625 C-96.9880511 131.40196017 -95.84100905 129.4865381 -94.6953125 127.5703125 C-92.80611342 124.41364758 -90.91438795 121.25863627 -89.01489258 118.1081543 C-84.50819648 110.63298922 -80.08113124 103.11531401 -75.69921875 95.56640625 C-70.96185657 87.40713938 -66.15981245 79.30343723 -61.13671875 71.31640625 C-69.79167504 76.08577477 -78.20757871 81.18449083 -86.57421875 86.44140625 C-97.53704164 93.32881745 -108.54356313 100.13620568 -119.63818359 106.80957031 C-121.90064658 108.17403402 -124.15380284 109.5526965 -126.40625 110.93359375 C-127.6281716 111.66659065 -128.8507633 112.39847239 -130.07421875 113.12890625 C-131.07324219 113.73347656 -132.07226562 114.33804688 -133.1015625 114.9609375 C-137.99140269 117.14468852 -142.43640719 117.60956342 -147.76171875 116.69140625 C-153.05353167 114.53548247 -156.18786412 111.9927161 -159.01171875 107.00390625 C-160.77661458 101.2189699 -161.00715434 96.72242264 -158.63671875 91.19140625 C-154.22542762 83.5205013 -145.13567556 79.34954855 -137.76171875 74.94140625 C-135.70794613 73.70246455 -133.65457589 72.46285565 -131.6015625 71.22265625 C-130.53921387 70.58199219 -129.47686523 69.94132812 -128.38232422 69.28125 C-123.01190743 66.03007546 -117.66817572 62.73583083 -112.32421875 59.44140625 C-111.24374268 58.77592773 -110.1632666 58.11044922 -109.05004883 57.42480469 C-105.74527181 55.38921283 -102.44093055 53.35291544 -99.13671875 51.31640625 C-85.60870331 42.97858488 -72.07160129 34.65750834 -58.48999023 26.40722656 C-51.97886317 22.44802568 -45.48890608 18.45587347 -39.01171875 14.44140625 C-38.14522705 13.90459229 -37.27873535 13.36777832 -36.38598633 12.81469727 C-32.60170564 10.46891787 -28.81981778 8.1194448 -25.04296875 5.76171875 C-23.8658994 5.02992543 -22.68881721 4.29815275 -21.51171875 3.56640625 C-20.52945313 2.9528125 -19.5471875 2.33921875 -18.53515625 1.70703125 C-13.02567861 -1.48738901 -6.07740656 -1.94432568 0 0 Z " fill="#1A1A1A" transform="translate(758.13671875,253.68359375)"/>
</svg>
